<svg width="19" height="16" viewBox="0 0 19 16" fill="none" xmlns="http://www.w3.org/2000/svg">
<path d="M14.0417 0H4.68056C1.87222 0 0 1.40417 0 4.68056V11.2333C0 14.5097 1.87222 15.9139 4.68056 15.9139H14.0417C16.85 15.9139 18.7222 14.5097 18.7222 11.2333V4.68056C18.7222 1.40417 16.85 0 14.0417 0ZM14.4816 5.70092L11.5516 8.04119C10.9338 8.53733 10.1474 8.78072 9.36111 8.78072C8.57478 8.78072 7.77908 8.53733 7.17061 8.04119L4.24058 5.70092C3.94103 5.45753 3.89422 5.00819 4.12825 4.70864C4.37164 4.40908 4.81161 4.35292 5.11117 4.59631L8.04119 6.93658C8.75264 7.50761 9.96022 7.50761 10.6717 6.93658L13.6017 4.59631C13.9012 4.35292 14.3506 4.39972 14.5846 4.70864C14.828 5.00819 14.7812 5.45753 14.4816 5.70092Z" fill="#4182F9"/>
</svg>
