<svg width="23" height="23" viewBox="0 0 23 23" fill="none" xmlns="http://www.w3.org/2000/svg">
<path d="M15.9139 3.27637H6.55278C3.74445 3.27637 1.87222 4.68053 1.87222 7.95692V14.5097C1.87222 17.7861 3.74445 19.1903 6.55278 19.1903H15.9139C18.7222 19.1903 20.5944 17.7861 20.5944 14.5097V7.95692C20.5944 4.68053 18.7222 3.27637 15.9139 3.27637ZM16.3539 8.97728L13.4238 11.3176C12.806 11.8137 12.0197 12.0571 11.2333 12.0571C10.447 12.0571 9.65131 11.8137 9.04283 11.3176L6.11281 8.97728C5.81325 8.73389 5.76644 8.28456 6.00047 7.98501C6.24386 7.68545 6.68383 7.62928 6.98339 7.87267L9.91342 10.213C10.6249 10.784 11.8324 10.784 12.5439 10.213L15.4739 7.87267C15.7735 7.62928 16.2228 7.67609 16.4568 7.98501C16.7002 8.28456 16.6534 8.73389 16.3539 8.97728Z" fill="#4182F9"/>
</svg>
