<svg width="23" height="23" viewBox="0 0 23 23" fill="none" xmlns="http://www.w3.org/2000/svg">
<path d="M11.2333 6.02856V9.14581" stroke="#ADA7A7" stroke-width="1.40417" stroke-miterlimit="10" stroke-linecap="round"/>
<path d="M11.2521 1.87222C7.80717 1.87222 5.01756 4.66183 5.01756 8.10672V10.0726C5.01756 10.7091 4.75545 11.6639 4.42781 12.2069L3.23895 14.1914C2.50878 15.4177 3.01428 16.7845 4.36228 17.2338C8.83689 18.7222 13.6766 18.7222 18.1512 17.2338C19.4149 16.8126 19.9579 15.3335 19.2745 14.1914L18.0857 12.2069C17.758 11.6639 17.4959 10.6998 17.4959 10.0726V8.10672C17.4866 4.68056 14.6782 1.87222 11.2521 1.87222Z" stroke="#ADA7A7" stroke-width="1.40417" stroke-miterlimit="10" stroke-linecap="round"/>
<path d="M14.3506 17.6176C14.3506 19.3307 12.9464 20.7349 11.2333 20.7349C10.3815 20.7349 9.59514 20.3791 9.03348 19.8175C8.47181 19.2558 8.11609 18.4695 8.11609 17.6176" stroke="#ADA7A7" stroke-width="1.40417" stroke-miterlimit="10"/>
</svg>
