<svg width="17" height="17" viewBox="0 0 17 17" fill="none" xmlns="http://www.w3.org/2000/svg">
<path d="M15.6612 5.18607V8.93051C15.6612 9.1739 15.6518 9.40793 15.6237 9.6326C15.4084 12.1601 13.92 13.4145 11.1772 13.4145H10.8027C10.5687 13.4145 10.344 13.5268 10.2036 13.714L9.08029 15.2118C8.58415 15.8764 7.77909 15.8764 7.28295 15.2118L6.1596 13.714C6.03791 13.5549 5.76645 13.4145 5.56051 13.4145H5.18607C2.19987 13.4145 0.702087 12.675 0.702087 8.93051V5.18607C0.702087 2.44326 1.96585 0.954845 4.48398 0.73954C4.70865 0.711457 4.94268 0.702087 5.18607 0.702087H11.1772C14.1634 0.702087 15.6612 2.19987 15.6612 5.18607Z" stroke="#292D32" stroke-width="1.40417" stroke-miterlimit="10" stroke-linecap="round" stroke-linejoin="round"/>
</svg>
