<svg width="8" height="8" viewBox="0 0 8 8" fill="none" xmlns="http://www.w3.org/2000/svg">
<path d="M4.34914 1.15142L4.90144 2.25602C4.97633 2.4058 5.17291 2.55559 5.35078 2.58367L6.35242 2.75216C6.98897 2.85513 7.13875 3.3232 6.68005 3.78189L5.90308 4.55885C5.77203 4.68991 5.69714 4.94267 5.74394 5.12989L5.96861 6.09409C6.14647 6.85234 5.74394 7.15187 5.06994 6.74935L4.13383 6.19704C3.96533 6.09407 3.6845 6.09407 3.516 6.19704L2.57989 6.74935C1.90589 7.14251 1.50336 6.85234 1.68122 6.09409L1.90589 5.12989C1.94333 4.95203 1.8778 4.68991 1.74675 4.55885L0.969776 3.78189C0.511082 3.3232 0.660859 2.8645 1.29741 2.75216L2.29905 2.58367C2.46755 2.55559 2.66414 2.4058 2.73903 2.25602L3.29133 1.15142C3.5628 0.55231 4.04958 0.55231 4.34914 1.15142Z" stroke="#292D32" stroke-width="1.40417" stroke-linecap="round" stroke-linejoin="round"/>
</svg>
