<svg width="23" height="23" viewBox="0 0 23 23" fill="none" xmlns="http://www.w3.org/2000/svg">
<path d="M11.2333 14.0417C12.7843 14.0417 14.0417 12.7843 14.0417 11.2333C14.0417 9.68232 12.7843 8.42499 11.2333 8.42499C9.68232 8.42499 8.42499 9.68232 8.42499 11.2333C8.42499 12.7843 9.68232 14.0417 11.2333 14.0417Z" stroke="#292D32" stroke-width="1.40417" stroke-miterlimit="10" stroke-linecap="round" stroke-linejoin="round"/>
<path d="M1.87222 12.0571V10.4095C1.87222 9.43599 2.66792 8.63093 3.65083 8.63093C5.3452 8.63093 6.03792 7.43271 5.18606 5.96302C4.69928 5.12052 4.98947 4.02527 5.84133 3.53849L7.46081 2.61174C8.20033 2.17177 9.15517 2.43388 9.59514 3.1734L9.69811 3.35127C10.5406 4.82096 11.9261 4.82096 12.7779 3.35127L12.8809 3.1734C13.3209 2.43388 14.2757 2.17177 15.0152 2.61174L16.6347 3.53849C17.4866 4.02527 17.7767 5.12052 17.29 5.96302C16.4381 7.43271 17.1308 8.63093 18.8252 8.63093C19.7988 8.63093 20.6038 9.42663 20.6038 10.4095V12.0571C20.6038 13.0307 19.8081 13.8357 18.8252 13.8357C17.1308 13.8357 16.4381 15.0339 17.29 16.5036C17.7767 17.3555 17.4866 18.4414 16.6347 18.9282L15.0152 19.8549C14.2757 20.2949 13.3209 20.0328 12.8809 19.2932L12.7779 19.1154C11.9354 17.6457 10.55 17.6457 9.69811 19.1154L9.59514 19.2932C9.15517 20.0328 8.20033 20.2949 7.46081 19.8549L5.84133 18.9282C4.98947 18.4414 4.69928 17.3461 5.18606 16.5036C6.03792 15.0339 5.3452 13.8357 3.65083 13.8357C2.66792 13.8357 1.87222 13.0307 1.87222 12.0571Z" stroke="#292D32" stroke-width="1.40417" stroke-miterlimit="10" stroke-linecap="round" stroke-linejoin="round"/>
</svg>
