<svg width="21" height="10" viewBox="0 0 21 10" fill="none" xmlns="http://www.w3.org/2000/svg">
<path d="M18.7422 5.91623L17.1976 6.2813C16.8512 6.36555 16.5798 6.62768 16.5049 6.97404L16.1772 8.35013C15.9994 9.09902 15.0445 9.32369 14.5484 8.73394L10.0831 3.60404L5.61789 8.74328C5.12175 9.33303 4.16692 9.10836 3.98906 8.35947L3.66142 6.98338C3.57717 6.63702 3.3057 6.36556 2.9687 6.29067L1.42411 5.9256C0.712669 5.7571 0.459919 4.86778 0.97478 4.35291L4.62561 0.702087C5.63661 2.19987 7.23736 3.25769 9.10022 3.52916C9.4185 3.58533 9.74614 3.61341 10.0831 3.61341C10.4201 3.61341 10.7478 3.58533 11.0661 3.52916C12.9289 3.25769 14.5297 2.19987 15.5407 0.702087L19.1915 4.35291C19.7064 4.85841 19.4536 5.74773 18.7422 5.91623Z" stroke="#292D32" stroke-width="1.40417" stroke-linecap="round" stroke-linejoin="round"/>
</svg>
