<svg width="23" height="23" viewBox="0 0 23 23" fill="none" xmlns="http://www.w3.org/2000/svg">
<path d="M17.7861 8.425C17.7861 9.78236 17.3836 11.0274 16.6908 12.0665C15.6798 13.5643 14.0791 14.6221 12.2162 14.8935C11.898 14.9497 11.5703 14.9778 11.2333 14.9778C10.8963 14.9778 10.5687 14.9497 10.2504 14.8935C8.38754 14.6221 6.78679 13.5643 5.77579 12.0665C5.08307 11.0274 4.68054 9.78236 4.68054 8.425C4.68054 4.80225 7.61057 1.87222 11.2333 1.87222C14.8561 1.87222 17.7861 4.80225 17.7861 8.425Z" stroke="#292D32" stroke-width="1.40417" stroke-linecap="round" stroke-linejoin="round"/>
<path d="M19.8923 17.29L18.3478 17.655C18.0014 17.7393 17.7299 18.0014 17.655 18.3478L17.3274 19.7239C17.1495 20.4728 16.1947 20.6974 15.6986 20.1077L11.2333 14.9778L6.76807 20.117C6.27193 20.7068 5.3171 20.4821 5.13923 19.7332L4.8116 18.3571C4.72735 18.0108 4.45587 17.7393 4.11887 17.6644L2.57429 17.2994C1.86285 17.1309 1.6101 16.2415 2.12496 15.7267L5.77579 12.0758C6.78679 13.5736 8.38754 14.6314 10.2504 14.9029C10.5687 14.9591 10.8963 14.9872 11.2333 14.9872C11.5703 14.9872 11.898 14.9591 12.2162 14.9029C14.0791 14.6314 15.6798 13.5736 16.6908 12.0758L20.3417 15.7267C20.8565 16.2322 20.6038 17.1215 19.8923 17.29Z" stroke="#292D32" stroke-width="1.40417" stroke-linecap="round" stroke-linejoin="round"/>
<path d="M11.7763 5.59795L12.3286 6.70256C12.4035 6.85234 12.6001 7.00212 12.7779 7.0302L13.7796 7.1987C14.4161 7.30167 14.5659 7.76973 14.1072 8.22842L13.3302 9.00538C13.1992 9.13644 13.1243 9.3892 13.1711 9.57643L13.3958 10.5406C13.5736 11.2989 13.1711 11.5984 12.4971 11.1959L11.561 10.6436C11.3925 10.5406 11.1117 10.5406 10.9432 10.6436L10.007 11.1959C9.33304 11.589 8.93051 11.2989 9.10837 10.5406L9.33304 9.57643C9.37049 9.39856 9.30496 9.13644 9.1739 9.00538L8.39693 8.22842C7.93824 7.76973 8.08801 7.31103 8.72457 7.1987L9.72621 7.0302C9.89471 7.00212 10.0913 6.85234 10.1662 6.70256L10.7185 5.59795C10.99 4.99884 11.4767 4.99884 11.7763 5.59795Z" stroke="#292D32" stroke-width="1.40417" stroke-linecap="round" stroke-linejoin="round"/>
</svg>
