<svg width="21" height="20" viewBox="0 0 21 20" fill="none" xmlns="http://www.w3.org/2000/svg">
<path d="M0.702087 10.3624V8.71481C0.702087 7.74126 1.49778 6.9362 2.4807 6.9362C4.17506 6.9362 4.86778 5.73798 4.01592 4.26828C3.52914 3.42578 3.81934 2.33053 4.6712 1.84376L6.29067 0.917005C7.0302 0.477033 7.98503 0.739144 8.425 1.47867L8.52798 1.65653C9.37048 3.12623 10.7559 3.12623 11.6078 1.65653L11.7108 1.47867C12.1507 0.739144 13.1056 0.477033 13.8451 0.917005L15.4646 1.84376C16.3164 2.33053 16.6066 3.42578 16.1198 4.26828C15.268 5.73798 15.9607 6.9362 17.6551 6.9362C18.6286 6.9362 19.4337 7.73189 19.4337 8.71481V10.3624C19.4337 11.3359 18.638 12.141 17.6551 12.141C15.9607 12.141 15.268 13.3392 16.1198 14.8089C16.6066 15.6608 16.3164 16.7466 15.4646 17.2334L13.8451 18.1602C13.1056 18.6001 12.1507 18.338 11.7108 17.5985L11.6078 17.4206C10.7653 15.951 9.37984 15.951 8.52798 17.4206L8.425 17.5985C7.98503 18.338 7.0302 18.6001 6.29067 18.1602L4.6712 17.2334C3.81934 16.7466 3.52914 15.6514 4.01592 14.8089C4.86778 13.3392 4.17506 12.141 2.4807 12.141C1.49778 12.141 0.702087 11.3359 0.702087 10.3624Z" stroke="#292D32" stroke-width="1.40417" stroke-miterlimit="10" stroke-linecap="round" stroke-linejoin="round"/>
</svg>
