<svg width="23" height="23" viewBox="0 0 23 23" fill="none" xmlns="http://www.w3.org/2000/svg">
<path d="M20.5945 10.2036V3.83806C20.5945 2.43389 19.9953 1.87222 18.5069 1.87222H14.725C13.2366 1.87222 12.6375 2.43389 12.6375 3.83806V10.2036C12.6375 11.6078 13.2366 12.1694 14.725 12.1694H18.5069C19.9953 12.1694 20.5945 11.6078 20.5945 10.2036Z" fill="#4182F9"/>
<path d="M20.5945 18.6286V16.9436C20.5945 15.5395 19.9953 14.9778 18.5069 14.9778H14.725C13.2366 14.9778 12.6375 15.5395 12.6375 16.9436V18.6286C12.6375 20.0328 13.2366 20.5944 14.725 20.5944H18.5069C19.9953 20.5944 20.5945 20.0328 20.5945 18.6286Z" fill="#4182F9"/>
<path d="M9.82917 12.2631V18.6286C9.82917 20.0328 9.23006 20.5944 7.74164 20.5944H3.95975C2.47133 20.5944 1.87222 20.0328 1.87222 18.6286V12.2631C1.87222 10.8589 2.47133 10.2972 3.95975 10.2972H7.74164C9.23006 10.2972 9.82917 10.8589 9.82917 12.2631Z" fill="#4182F9"/>
<path d="M9.82917 3.83806V5.52306C9.82917 6.92722 9.23006 7.48889 7.74164 7.48889H3.95975C2.47133 7.48889 1.87222 6.92722 1.87222 5.52306V3.83806C1.87222 2.43389 2.47133 1.87222 3.95975 1.87222H7.74164C9.23006 1.87222 9.82917 2.43389 9.82917 3.83806Z" fill="#4182F9"/>
</svg>
